PathFileType	4	(X/Y/Z)	C:/Users/opensim2020/Desktop/walking_exp_matlab/subject06_walking18_straight_04.trc																																																																																																																																											
DataRate	CameraRate	NumFrames	NumMarkers	Units	OrigDataRate	OrigDataStartFrame	OrigNumFrames																																																																																																																																							
100	100	5	47	mm	100	4674	409																																																																																																																																							
Frame#	Time	LFHD			RFHD			LBHD			RBHD			C7			T10			CLAV			STRN			RBAK			LSHO			LUPA			LELB			LFRM			LWRA			LWRB			LFIN			RSHO			RUPA			RELB			RFRM			RWRA			RWRB			RFIN			LASI			RASI			LPSI			RPSI			LTHI			LKNE			LTIB			LANK			LHEE			LTOE			RTHI			RKNE			RTIB			RANK			RHEE			RTOE			*39			*40			*41			*42			*43			*44			*45			*46		
		X1	Y1	Z1	X2	Y2	Z2	X3	Y3	Z3	X4	Y4	Z4	X5	Y5	Z5	X6	Y6	Z6	X7	Y7	Z7	X8	Y8	Z8	X9	Y9	Z9	X10	Y10	Z10	X11	Y11	Z11	X12	Y12	Z12	X13	Y13	Z13	X14	Y14	Z14	X15	Y15	Z15	X16	Y16	Z16	X17	Y17	Z17	X18	Y18	Z18	X19	Y19	Z19	X20	Y20	Z20	X21	Y21	Z21	X22	Y22	Z22	X23	Y23	Z23	X24	Y24	Z24	X25	Y25	Z25	X26	Y26	Z26	X27	Y27	Z27	X28	Y28	Z28	X29	Y29	Z29	X30	Y30	Z30	X31	Y31	Z31	X32	Y32	Z32	X33	Y33	Z33	X34	Y34	Z34	X35	Y35	Z35	X36	Y36	Z36	X37	Y37	Z37	X38	Y38	Z38	X39	Y39	Z39	X40	Y40	Z40	X41	Y41	Z41	X42	Y42	Z42	X43	Y43	Z43	X44	Y44	Z44	X45	Y45	Z45	X46	Y46	Z46	X47	Y47	Z47
																																																																																																																																														
154	1.53	-267.65991	1670.60303	964.36066	-260.0343	1660.07825	1096.15442	-398.7442	1611.89331	971.54547	-389.54724	1606.52661	1100.82019	-392.8822	1456.64063	1026.26367	-424.33203	1127.90283	1034.30859	-283.27698	1380.25366	1022.2973	-243.74062	1203.8905	1013.18298	-460.51053	1285.26318	1109.01379	-341.73651	1411.17065	863.4361	-323.14746	1209.05359	792.96521	-307.15396	1097.56763	781.19397	-209.32344	985.40912	764.60657	-92.71335	937.21588	811.09363	-135.77586	892.29877	776.77881	-51.82382	858.60712	777.28235	-319.86087	1411.01123	1184.91907	-348.46869	1211.32617	1273.24231	-337.05438	1090.48218	1285.63708	-314.15829	972.61469	1302.75623	-245.50557	837.90674	1269.69299	-297.98486	836.02661	1311.76489	-256.95413	761.46191	1311.31372	-256.49741	967.08514	912.25195	-237.53525	974.28162	1133.47131	-411.73779	993.96735	951.67584	-392.3667	1001.10229	1119.53979	-304.29205	648.85632	858.62482	-283.98022	486.76022	878.53094	-429.19821	281.76086	879.83942	-515.68945	131.31377	913.27094	-553.97827	128.17857	963.39294	-401.74701	49.55887	895.1394	-286.23993	639.78186	1186.23865	-282.8027	513.36481	1162.62756	-330.1377	250.80531	1154.66675	-342.09525	66.18349	1100.95837	-381.07141	42.05086	1056.35535	-187.14041	32.35062	1098.6084	-365.45554	1705.78186	1029.40955	NaN	NaN	NaN	NaN	NaN	NaN	NaN	NaN	NaN	NaN	NaN	NaN	NaN	NaN	NaN	NaN	NaN	NaN	NaN	NaN	NaN
155	1.54	-262.71112	1670.81323	965.27783	-254.83015	1660.48083	1097.00415	-394.00705	1612.50171	972.73816	-384.40765	1607.11646	1101.92651	-388.06335	1457.08057	1027.58081	-419.68057	1128.35449	1035.73535	-278.50977	1380.65381	1023.41022	-239.09187	1204.2113	1014.35266	-455.629	1285.74463	1110.62378	-337.25381	1411.5022	864.63428	-319.22034	1209.32043	793.96985	-303.80682	1097.63672	781.96625	-208.51088	983.02283	764.39795	-92.69164	931.76678	810.15521	-137.53734	887.90125	776.44745	-54.47375	851.54541	776.27753	-314.832	1411.55151	1186.02344	-342.77499	1211.91687	1274.60303	-330.80377	1091.04199	1286.90198	-306.63132	973.4303	1303.77246	-236.32727	839.75372	1270.24304	-288.82962	837.16919	1312.43811	-246.73558	762.98163	1311.57227	-251.74841	967.86456	913.51715	-233.45677	974.13782	1134.57422	-407.05597	994.61359	952.62543	-387.98441	1001.22546	1120.51428	-297.46777	649.95013	858.8161	-275.91309	487.99512	879.10889	-416.60165	279.56274	879.98157	-498.64597	126.50932	913.13214	-536.73822	121.98661	963.30719	-382.15234	48.54597	894.60913	-283.41135	639.56067	1186.59924	-280.65182	513.14984	1162.84485	-329.32339	250.84158	1154.63245	-342.05289	66.24609	1100.85474	-381.0871	42.15703	1056.26343	-187.18216	32.3404	1098.65051	-360.2977	1706.22998	1030.35925	NaN	NaN	NaN	NaN	NaN	NaN	NaN	NaN	NaN	NaN	NaN	NaN	NaN	NaN	NaN	NaN	NaN	NaN	NaN	NaN	NaN
156	1.55	-257.7739	1670.96509	965.99213	-249.6525	1660.81458	1097.80664	-388.96164	1612.81702	973.74762	-379.63245	1607.67078	1103.36169	-383.34576	1457.53381	1028.8584	-414.9928	1128.7229	1037.07043	-273.74686	1380.97839	1024.46948	-234.26978	1204.5918	1015.50372	-450.73529	1286.13989	1112.17871	-332.64819	1411.74426	865.82922	-315.30133	1209.49805	794.92487	-300.55545	1097.56519	782.68927	-207.99294	980.53687	764.69397	-93.13491	926.005	809.11053	-139.49963	883.46533	775.83777	-57.62719	844.76685	775.29498	-309.82843	1412.04504	1187.15625	-337.14426	1212.39392	1275.85303	-324.64832	1091.58972	1288.16333	-299.07593	974.245	1304.7594	-227.10008	841.5921	1270.71912	-279.45801	838.1684	1312.93115	-236.519	764.56726	1311.80469	-246.97835	968.58691	914.67773	-228.39915	974.40814	1134.93213	-402.3797	995.23755	953.53406	-383.20932	1001.08746	1121.23364	-290.62173	650.98669	859.05469	-267.99445	489.15985	879.65692	-403.64758	277.17963	880.09357	-481.11826	121.64734	913.04199	-518.96442	115.77275	963.28021	-362.15692	47.67911	893.79138	-280.564	639.33606	1186.90112	-278.45685	512.98785	1163.20227	-328.39545	250.80632	1154.70752	-341.98511	66.26462	1100.7561	-381.09335	42.20481	1056.18787	-187.11404	32.31119	1098.62354	-355.17169	1706.68921	1031.25562	NaN	NaN	NaN	NaN	NaN	NaN	NaN	NaN	NaN	NaN	NaN	NaN	NaN	NaN	NaN	NaN	NaN	NaN	NaN	NaN	NaN
157	1.56	-252.77686	1671.16675	966.72388	-244.54298	1661.10059	1098.5426	-384.08676	1613.21643	974.91089	-374.21072	1608.15015	1103.92896	-378.33603	1457.77148	1029.98865	-410.33133	1129.04663	1038.42566	-269.01062	1381.21704	1025.50745	-229.62088	1204.80872	1016.66785	-445.90326	1286.4624	1113.59583	-328.05869	1411.88403	866.93182	-311.49411	1209.61292	795.8465	-297.375	1097.45154	783.3725	-207.62758	977.9494	764.31946	-93.96487	920.07257	807.99194	-141.91031	879.02185	775.42432	-61.21493	837.50537	774.06927	-304.79642	1412.44873	1188.22961	-331.63083	1212.7981	1277.09021	-318.51935	1092.04065	1289.44702	-291.53897	975.008	1305.68311	-217.88586	843.47412	1271.08997	-269.96716	839.13306	1313.33484	-226.1597	766.2666	1312.11951	-242.15282	969.2522	915.8562	-224.76187	973.94141	1136.72559	-397.77957	995.79749	954.32764	-378.88083	1001.12836	1122.11304	-283.69098	651.96545	859.15649	-260.08923	490.328	880.0799	-390.49765	274.7962	880.23187	-463.20248	116.8661	912.99512	-500.60663	109.56611	963.31335	-342.08325	46.91213	892.75275	-277.75055	639.08191	1187.19739	-276.26953	512.73077	1163.52893	-327.40363	250.74339	1154.77673	-342.10696	66.48487	1100.87195	-381.38754	42.5428	1056.29431	-187.10597	32.27171	1098.65295	-350.13019	1707.04871	1032.08167	NaN	NaN	NaN	NaN	NaN	NaN	NaN	NaN	NaN	NaN	NaN	NaN	NaN	NaN	NaN	NaN	NaN	NaN	NaN	NaN	NaN
158	1.57	-247.89406	1671.14954	967.23755	-239.42064	1661.36365	1099.22046	-379.14035	1613.42297	975.69159	-369.15619	1608.56763	1104.89282	-373.55173	1458.07678	1031.15125	-405.75125	1129.31226	1039.69885	-264.22607	1381.41589	1026.55151	-224.85757	1204.99402	1017.78357	-441.02765	1286.76404	1115.01672	-323.4761	1411.89429	868.03845	-307.71283	1209.59009	796.71643	-294.22729	1097.28467	784.05884	-207.48083	975.44397	764.49719	-95.22963	913.9585	806.8598	-144.56819	874.45648	774.21118	-65.53892	830.28839	772.80463	-299.80453	1412.79688	1189.25732	-326.14297	1213.15637	1278.3125	-312.44968	1092.4585	1290.69897	-284.00403	975.763	1306.61047	-208.65567	845.41388	1271.38428	-260.59131	840.34564	1313.92822	-215.54289	767.98816	1312.01257	-237.36215	969.96313	917.03052	-220.77124	973.71765	1137.69946	-393.13721	996.29401	955.08917	-374.93723	1001.3092	1123.11108	-276.96881	653.1217	859.02252	-252.36972	491.50354	880.47913	-377.20142	272.36786	880.35315	-444.89145	112.21729	912.91241	-481.79123	103.52057	963.43994	-321.47	46.4562	891.71637	-274.88773	638.83618	1187.51208	-274.11084	512.46216	1163.84998	-326.43539	250.67258	1154.85156	-341.97495	66.39571	1100.75793	-381.41504	42.63687	1056.24744	-187.06746	32.23606	1098.65674	-344.96823	1707.33289	1032.88416	NaN	NaN	NaN	NaN	NaN	NaN	NaN	NaN	NaN	NaN	NaN	NaN	NaN	NaN	NaN	NaN	NaN	NaN	NaN	NaN	NaN
